<?xml version="1.0" encoding="UTF-8" standalone="no"?>
<!-- Created with Inkscape (http://www.inkscape.org/) -->

<svg
   xmlns:dc="http://purl.org/dc/elements/1.1/"
   xmlns:cc="http://creativecommons.org/ns#"
   xmlns:rdf="http://www.w3.org/1999/02/22-rdf-syntax-ns#"
   xmlns:svg="http://www.w3.org/2000/svg"
   xmlns="http://www.w3.org/2000/svg"
   xmlns:sodipodi="http://sodipodi.sourceforge.net/DTD/sodipodi-0.dtd"
   xmlns:inkscape="http://www.inkscape.org/namespaces/inkscape"
   width="3mm"
   height="1mm"
   viewBox="0 0 3 1"
   version="1.1"
   id="svg6608"
   inkscape:version="0.92.4 (5da689c313, 2019-01-14)"
   sodipodi:docname="QuantLogoSNápisem.svg">
  <defs
     id="defs6602" />
  <sodipodi:namedview
     id="base"
     pagecolor="#ffffff"
     bordercolor="#666666"
     borderopacity="1.0"
     inkscape:pageopacity="0.0"
     inkscape:pageshadow="2"
     inkscape:zoom="63.356767"
     inkscape:cx="6.2422185"
     inkscape:cy="1.8422176"
     inkscape:document-units="mm"
     inkscape:current-layer="layer1"
     showgrid="false"
     units="mm"
     width="3mm"
     inkscape:window-width="1920"
     inkscape:window-height="1017"
     inkscape:window-x="-8"
     inkscape:window-y="-8"
     inkscape:window-maximized="1" />
  <metadata
     id="metadata6605">
    <rdf:RDF>
      <cc:Work
         rdf:about="">
        <dc:format>image/svg+xml</dc:format>
        <dc:type
           rdf:resource="http://purl.org/dc/dcmitype/StillImage" />
        <dc:title></dc:title>
      </cc:Work>
    </rdf:RDF>
  </metadata>
  <g
     inkscape:label="Vrstva 1"
     inkscape:groupmode="layer"
     id="layer1"
     transform="translate(0,-296)">
    <rect
       style="opacity:1;vector-effect:none;fill:#000000;fill-opacity:1;fill-rule:evenodd;stroke-width:0.26458332;stroke-linecap:butt;stroke-linejoin:miter;stroke-miterlimit:4;stroke-dasharray:none;stroke-dashoffset:0;stroke-opacity:1"
       id="rect6624"
       width="2.6225822"
       height="2.221678"
       x="-0.61388469"
       y="297.06265" />
    <g
       id="g7185"
       transform="translate(-0.02088043)">
      <g
         transform="matrix(0.00451968,0,0,0.00451968,-2.1603005,294.8034)"
         id="g6575">
        <path
           sodipodi:nodetypes="ccccccccc"
           inkscape:connector-curvature="0"
           id="path6583"
           d="M 452.24347,351.57974 V 246.83748 H 556.98573 661.728 l -41.4894,111.41911 41.4894,98.06542 H 556.98573 452.24347 Z"
           style="fill:#ffffff;fill-opacity:0;stroke-width:0.26185566" />
        <path
           inkscape:connector-curvature="0"
           id="path6581"
           d="m 519.34227,453.89985 c -0.74759,-0.93316 -2.17157,-4.32276 -3.98773,-9.49227 -0.95438,-2.71655 -1.19386,-3.5531 -2.21136,-7.72474 -1.93166,-7.91953 -2.24747,-17.81406 -0.8107,-25.4 0.92859,-4.90285 3.19936,-11.89842 4.43478,-13.66222 0.22903,-0.32699 0.41641,-0.77843 0.41641,-1.00321 0,-0.22478 -0.71344,-1.40637 -1.58543,-2.62575 -4.78811,-6.69567 -7.24953,-10.70945 -10.35214,-16.88099 -2.89627,-5.76108 -4.33549,-9.4914 -6.36479,-16.4969 -2.1712,-7.49541 -2.8381,-18.00462 -1.63676,-25.79279 0.59843,-3.87958 1.16826,-6.68865 1.59355,-7.85567 0.13121,-0.36005 0.50061,-1.5384 0.82088,-2.61855 0.32027,-1.08016 1.20439,-3.43686 1.9647,-5.23712 4.89994,-11.602 12.94097,-22.04216 24.6195,-31.96498 4.74631,-4.03278 6.87893,-5.615 13.19823,-9.79194 4.18063,-2.76332 6.37033,-4.08866 11.92589,-7.21824 0.56978,-0.32097 2.7892,-1.46615 4.93205,-2.54483 3.74132,-1.88335 3.93496,-1.94961 4.87471,-1.66805 0.53824,0.16126 1.22501,0.2932 1.52615,0.2932 1.16358,0 14.43434,7.23783 19.64874,10.71635 0.77188,0.51493 1.95346,1.28973 2.62573,1.72179 7.2228,4.642 16.64316,12.71485 22.00065,18.85361 8.57353,9.8238 13.39875,18.20345 16.51077,28.6732 1.70722,5.74359 2.16274,8.8985 2.29881,15.92166 0.15651,8.07824 -0.37607,12.38311 -2.44966,19.80077 -2.78314,9.95586 -8.31945,21.01882 -15.17841,30.33035 -2.44226,3.31552 -2.37187,3.02956 -1.32275,5.37389 2.31837,5.18054 2.95921,7.20198 4.25273,13.41456 1.19356,5.73248 1.12661,16.61714 -0.14014,22.78144 -1.25743,6.11901 -2.14927,9.20577 -4.10813,14.21875 -1.30638,3.34319 -1.86914,4.37301 -2.3897,4.37301 -0.24521,0 -1.76382,-0.88148 -3.3747,-1.95883 -10.18466,-6.81147 -21.23182,-10.35647 -34.26883,-10.99678 -4.81059,-0.23627 -14.59142,0.44969 -18.32989,1.28554 -9.96644,2.22828 -18.74896,6.27395 -26.4752,12.19579 -1.77862,1.36324 -2.2204,1.52612 -2.65796,0.97995 z m 100.46807,-98.58866 c 0.76805,-3.25672 1.0356,-11.39919 0.54421,-16.56237 -1.15799,-12.16745 -6.63796,-24.75325 -15.73398,-36.13608 -4.06842,-5.09127 -10.5257,-11.49145 -16.11999,-15.97747 -6.32142,-5.0691 -9.87793,-7.04785 -5.80585,-3.23023 12.46466,11.68579 20.31645,22.06633 26.61065,35.18089 3.01994,6.29233 5.74782,13.87521 7.01794,19.50825 0.3572,1.58423 0.82648,3.63248 1.04283,4.55168 0.45077,1.91514 1.4161,9.31648 1.4204,10.89042 0.004,1.42886 0.2825,3.01872 0.52898,3.01872 0.11081,0 0.33347,-0.55971 0.49481,-1.24381 z m -116.00123,-2.81495 c 0.0786,-6.0977 3.21568,-19.38653 6.46444,-27.38404 6.00386,-14.77974 13.76929,-26.30043 26.01513,-38.59567 2.28794,-2.29717 2.86335,-3.11814 1.39818,-1.99485 -11.98326,9.187 -20.18329,18.071 -26.24525,28.43435 -0.99311,1.69781 -4.20845,8.10751 -4.20845,8.38945 0,0.0684 -0.3958,1.15463 -0.87956,2.41385 -0.48376,1.25922 -1.08636,3.05542 -1.33912,3.99155 -0.25275,0.93613 -0.62929,2.23232 -0.83676,2.88041 -0.75124,2.34677 -1.39382,7.27224 -1.55436,11.91443 -0.1546,4.47017 0.14944,10.6586 0.57799,11.76437 0.19308,0.49818 0.19805,0.49818 0.39321,0 0.10872,-0.27752 0.20527,-1.09375 0.21455,-1.81385 z m 59.92163,-5.17165 c 3.54967,-4.96795 4.73403,-6.85614 6.73364,-10.7352 1.89008,-3.66658 3.25782,-7.14792 4.39837,-11.19521 1.13156,-4.01543 1.40523,-5.62225 1.7823,-10.46476 0.29974,-3.84938 0.0691,-9.07606 -0.57828,-13.10225 -0.87039,-5.4135 -3.17995,-13.02172 -5.8027,-19.11546 -1.84458,-4.28576 -6.76281,-13.56958 -8.04584,-15.18763 l -0.51909,-0.65464 -0.51829,0.65464 c -1.5784,1.99367 -6.44846,11.26595 -8.59586,16.36598 -4.03663,9.5869 -6.07593,18.73498 -6.07079,27.23299 0.002,3.4351 0.58298,9.54724 1.04525,10.99793 0.13768,0.43206 0.55295,1.96392 0.92282,3.40413 1.70157,6.62549 5.67858,14.4261 11.04734,21.66855 1.05858,1.42802 1.87914,2.29124 2.17802,2.29124 0.30134,0 1.05316,-0.80281 2.02311,-2.16031 z"
           style="fill:#a6fb91;stroke-width:0.26185566" />
        <path
           inkscape:connector-curvature="0"
           id="path6579"
           d="m 601.87582,450.34287 c -5.24722,-3.68499 -11.85224,-6.81562 -18.29384,-8.67088 -7.87715,-2.26872 -15.15939,-3.0502 -24.0413,-2.57995 -4.0803,0.21602 -5.09592,0.19644 -6.02268,-0.11613 -0.92625,-0.3124 -1.24757,-0.31867 -1.90031,-0.0371 -0.43206,0.18641 -1.15555,0.34424 -1.60777,0.35073 -0.45221,0.007 -1.97489,0.24899 -3.38373,0.53886 -1.40883,0.28988 -2.76214,0.46338 -3.00736,0.38556 -0.38864,-0.12336 -0.46635,-0.72007 -0.60571,-4.65129 -0.0879,-2.48037 -0.23341,-4.95165 -0.3233,-5.49173 -0.21084,-1.26673 0.32976,-1.32557 1.20303,-0.13093 0.34215,0.46807 0.85283,1.01704 1.13483,1.21993 0.28201,0.2029 0.70177,0.59997 0.93282,0.8824 1.11903,1.36787 5.61824,5.94505 5.73198,5.83131 0.0712,-0.0712 -0.24494,-0.57451 -0.70257,-1.11842 -0.45763,-0.54391 -1.36893,-1.63702 -2.0251,-2.42914 -0.65618,-0.79211 -1.47039,-1.74708 -1.80937,-2.12216 -0.33897,-0.37507 -1.01439,-1.20346 -1.50092,-1.84085 -0.48654,-0.6374 -1.1703,-1.47149 -1.51948,-1.85353 -0.34918,-0.38204 -1.16513,-1.36435 -1.81322,-2.18291 -0.64809,-0.81856 -1.54396,-1.85755 -1.99082,-2.30885 -0.44686,-0.45131 -1.59895,-1.82216 -2.5602,-3.04633 -0.96125,-1.22418 -2.30425,-2.89217 -2.98444,-3.70664 -0.68019,-0.81447 -1.99892,-2.40525 -2.93052,-3.53505 -0.9316,-1.12981 -2.46345,-2.95308 -3.40412,-4.05173 -5.75722,-6.72406 -10.1298,-12.19636 -10.61088,-13.27955 -0.21376,-0.48127 -1.13529,-1.89529 -2.04787,-3.14227 -4.06414,-5.55342 -7.31143,-10.83337 -9.9202,-16.12983 -0.99739,-2.02496 -1.93743,-3.90759 -2.08899,-4.18363 -0.30189,-0.54988 -1.71198,-4.20633 -2.73495,-7.09192 -0.89188,-2.51582 -2.1564,-7.19007 -2.58564,-9.55773 -0.89866,-4.9569 -1.04916,-6.86282 -1.03389,-13.09279 0.0132,-5.37836 0.10965,-6.96576 0.59669,-9.81958 2.81325,-16.48429 12.07682,-31.59794 27.54465,-44.93947 4.29963,-3.70858 9.09021,-7.32767 13.68967,-10.342 4.65499,-3.05073 4.90097,-3.20461 7.90584,-4.94562 1.4402,-0.83445 2.97206,-1.72402 3.40412,-1.97681 1.78904,-1.04673 9.13292,-4.70023 9.4479,-4.70023 0.7428,0 0.6131,0.61428 -0.56673,2.68414 -2.94259,5.16239 -3.67571,6.53126 -5.15375,9.62308 -3.96754,8.29948 -6.60381,16.4159 -7.82485,24.09072 -0.46435,2.91864 -0.46483,13.50667 -7.9e-4,16.36598 0.85195,5.24905 3.11033,12.09137 5.66106,17.15155 2.59163,5.14133 8.2525,13.42874 9.49557,13.90135 0.90535,0.34422 1.64156,0.29381 1.64156,-0.1124 0,-0.34673 0.68614,-1.42583 3.29924,-5.18874 5.1141,-7.36438 8.54854,-15.22787 10.38954,-23.78784 0.75255,-3.49907 0.81783,-16.14163 0.10209,-19.7701 -0.63294,-3.20871 -2.21096,-9.37052 -2.85006,-11.12887 -1.71146,-4.70869 -2.40662,-6.50429 -3.33401,-8.61172 -0.5698,-1.29483 -1.15459,-2.56764 -1.29954,-2.82847 -0.14495,-0.26084 -0.60163,-1.18125 -1.01484,-2.04538 -0.41322,-0.86412 -1.53738,-2.99956 -2.49815,-4.74542 -0.96073,-1.74586 -1.74682,-3.30718 -1.74682,-3.46959 0,-0.71297 0.99842,-0.30565 6.23618,2.54414 1.62964,0.88666 3.01102,1.61211 3.06975,1.61211 0.2721,0 6.6982,3.9946 9.93386,6.1751 7.61003,5.12837 11.61118,8.29401 17.7654,14.05571 2.66679,2.49669 7.73912,8.24663 10.60059,12.01672 1.51002,1.9895 4.46477,6.80434 5.9216,9.64938 2.68225,5.23818 5.37668,12.71759 5.94294,16.4969 0.11868,0.79212 0.34391,2.02938 0.50051,2.74949 0.43732,2.01094 0.63296,13.67065 0.28339,16.88969 -0.84683,7.79821 -3.51486,16.64272 -7.4616,24.73522 -1.96253,4.02401 -5.745,10.46611 -7.98129,13.5933 -0.81082,1.13383 -1.97501,2.75849 -2.5871,3.61035 -1.29141,1.7973 -1.43069,2.90151 -0.57401,4.55061 1.96935,3.79095 3.97389,10.42339 4.86415,16.09402 0.63611,4.05182 0.63449,13.64362 -0.003,17.28248 -1.08441,6.19071 -1.76894,9.00326 -3.31404,13.61649 -1.48162,4.42371 -2.74255,7.18605 -3.32188,7.27731 -0.26633,0.0419 -1.30916,-0.50304 -2.31739,-1.21109 z m 18.36278,-92.08628 c 1.42404,-5.87867 1.78955,-14.19938 0.91444,-20.81705 -0.45715,-3.45702 -1.19236,-7.43415 -1.4519,-7.8541 -0.057,-0.0923 -0.34977,-1.08607 -0.65055,-2.20844 -1.4533,-5.42315 -5.33208,-13.50462 -9.30942,-19.39622 -7.27442,-10.77554 -17.77361,-20.91028 -30.10492,-29.0599 -3.26601,-2.15847 -5.36624,-3.27928 -6.1449,-3.27928 -1.35736,0 -0.16978,1.30911 5.3582,5.9065 8.6931,7.22969 16.06285,15.35105 22.32306,24.59969 3.59585,5.31239 8.49206,14.72867 10.29823,19.80532 0.32617,0.91676 0.67853,1.78468 0.78303,1.9287 0.17829,0.24571 1.24423,3.60237 2.36992,7.46288 0.63661,2.18326 1.18134,4.5376 1.69395,7.32129 0.22434,1.2183 0.46663,2.31012 0.53841,2.42626 0.22117,0.35785 0.8798,6.67556 1.11543,10.6994 0.22888,3.90842 0.5242,5.0469 1.27184,4.90292 0.29908,-0.0576 0.59297,-0.77756 0.99518,-2.43797 z m -116.03334,-3.46495 c 0.90661,-17.04064 7.07261,-34.67117 17.51613,-50.08406 4.982,-7.3526 10.7625,-13.8602 19.52799,-21.98432 1.78013,-1.64988 3.11146,-3.0415 2.9585,-3.09249 -0.60809,-0.2027 -6.67274,4.02855 -11.31287,7.89288 -10.44181,8.69602 -18.35263,18.18428 -23.58274,28.28519 -4.06517,7.85106 -6.34457,15.2781 -7.07335,23.04729 -0.34696,3.69885 -0.19528,12.11119 0.27428,15.21124 0.33012,2.17951 1.01381,4.37636 1.30582,4.19588 0.11462,-0.0708 0.28843,-1.63306 0.38624,-3.47161 z"
           style="fill:#90fd64;stroke-width:0.26185566" />
        <path
           inkscape:connector-curvature="0"
           id="path6577"
           d="m 601.37027,449.35809 c -5.58536,-3.84061 -13.60382,-7.28691 -21.00021,-9.02579 -6.37398,-1.49851 -15.81091,-2.18235 -21.87851,-1.58541 -1.69217,0.16648 -3.37582,0.22761 -3.74144,0.13585 -0.4394,-0.11028 -2.23323,-1.99857 -5.29087,-5.56946 -2.54435,-2.97144 -5.98997,-6.99338 -7.65693,-8.93766 -3.58025,-4.17586 -7.89001,-9.27243 -10.08565,-11.92695 -0.86412,-1.04472 -3.63324,-4.34255 -6.1536,-7.32851 -5.73311,-6.79222 -6.35726,-7.56994 -7.2428,-9.02495 -0.39444,-0.6481 -1.37176,-2.06212 -2.17182,-3.14227 -1.30705,-1.76465 -4.12818,-5.95365 -5.64318,-8.37938 -1.34822,-2.15869 -2.79034,-4.79582 -4.29589,-7.85567 -0.88579,-1.80026 -1.79821,-3.6267 -2.0276,-4.05876 -0.2294,-0.43207 -0.69128,-1.5515 -1.0264,-2.48763 -0.33513,-0.93614 -0.91826,-2.52691 -1.29585,-3.53505 -1.12762,-3.01073 -2.70311,-9.08363 -3.3143,-12.77536 -0.48803,-2.94777 -0.57259,-4.48649 -0.57151,-10.39887 0.001,-6.00085 0.0807,-7.39949 0.58886,-10.3433 0.32317,-1.87227 0.76455,-3.9933 0.98084,-4.7134 1.0695,-3.5607 2.21167,-7.0189 2.65363,-8.03452 0.27056,-0.62174 0.71523,-1.66069 0.98815,-2.30878 0.82383,-1.95626 3.75743,-7.32 5.29904,-9.68866 8.16155,-12.54003 20.64605,-23.87529 37.31117,-33.87653 5.32951,-3.19839 13.06586,-7.23481 13.86653,-7.23481 0.23627,0 -0.4237,1.29955 -3.45759,6.80825 -6.39963,11.61997 -10.11736,23.65073 -10.6003,34.30309 -0.59028,13.0201 2.82141,24.34158 10.88946,36.13608 0.8374,1.22418 1.89093,2.75603 2.34117,3.40413 0.45025,0.64809 1.66827,2.06211 2.70673,3.14226 1.03845,1.08016 2.40019,2.5531 3.02607,3.2732 4.18262,4.81226 13.26695,13.55904 21.7461,20.93808 7.45159,6.48481 9.34382,8.18588 11.0802,9.96089 3.39924,3.47484 6.75857,8.42919 7.24111,10.67917 0.15657,0.73007 0.51171,1.69476 0.7892,2.14375 1.5662,2.53416 3.83063,10.06225 4.45265,14.80285 1.16512,8.87964 0.99149,13.72946 -0.81095,22.65051 -1.28074,6.33893 -4.29127,15.10346 -5.23508,15.24085 -0.20107,0.0293 -1.30827,-0.59499 -2.46043,-1.38724 z m -97.03129,-90.11907 c 0.14998,-0.54007 0.27464,-1.86572 0.27701,-2.94587 0.006,-2.58272 0.89028,-10.1874 1.56694,-13.47047 2.21246,-10.73447 5.34194,-19.31879 10.5802,-29.02202 1.2005,-2.2238 2.41919,-4.38409 2.70818,-4.80065 0.28899,-0.41656 1.26588,-1.87681 2.17087,-3.24501 5.7683,-8.72074 12.58189,-16.24523 22.59212,-24.94929 3.86191,-3.358 4.67276,-4.37684 3.02664,-3.80299 -1.59615,0.55642 -5.72841,3.23621 -10.17624,6.59935 -13.144,9.93857 -23.04433,21.33398 -28.91523,33.2818 -4.54042,9.24017 -6.85284,18.82678 -6.79667,28.17701 0.0406,6.75497 1.38814,15.1601 2.43057,15.1601 0.1446,0 0.38562,-0.44188 0.53561,-0.98196 z"
           style="fill:#12e20a;stroke-width:0.26185566" />
      </g>
      <text
         id="text7171"
         y="296.84964"
         x="0.63476509"
         style="font-style:normal;font-weight:normal;font-size:0.70555562px;line-height:1.25;font-family:sans-serif;letter-spacing:0px;word-spacing:0px;fill:#000000;fill-opacity:1;stroke:none;stroke-width:0.26458332"
         xml:space="preserve"><tspan
           style="font-size:0.70555562px;line-height:1.25;stroke-width:0.26458332"
           y="296.84964"
           x="0.63476509"
           id="tspan7169"
           sodipodi:role="line">Quantical</tspan><tspan
           id="tspan7175"
           style="font-size:0.70555562px;line-height:1.25;stroke-width:0.26458332"
           y="297.7316"
           x="0.63476509"
           sodipodi:role="line" /></text>
    </g>
  </g>
</svg>
